# xmcd
#
# Track frame offsets: 
#        150
#        15751
#        31184
#        50642
#        67009
#        79855
#        94466
#        105813
#        118356
#        133044
#        146607
#        163343
#        178628
#
# Disc length: 2656 seconds
#
# Revision: 0
# Processed by: cddbd v1.5.2PL0 Copyright (c) Steve Scherf et al.
# Submitted via: ExactAudioCopyFreeDBPlugin 1.0
#
DISCID=b00a5e0d
DTITLE=Proč ne band - Toulám se...
DYEAR=2012
DGENRE=Country
TTITLE0=Loď se houpá
TTITLE1=Tam na hlavní třídě
TTITLE2=Tak to jsem já
TTITLE3=Zafúkané
TTITLE4=Toulám se
TTITLE5=Šest dní na silnici
TTITLE6=Tak nechoď dál
TTITLE7=Ven se dívej a nespi
TTITLE8=Blues folsomské věznice
TTITLE9=Na Vánoce ráno
TTITLE10=Já, písnička
TTITLE11=Rumový ráj
TTITLE12=Zrádný banjo
EXTD=
EXTT0=
EXTT1=
EXTT2=
EXTT3=
EXTT4=
EXTT5=
EXTT6=
EXTT7=
EXTT8=
EXTT9=
EXTT10=
EXTT11=
EXTT12=
PLAYORDER=
